<svg xmlns="http://www.w3.org/2000/svg" width="0.65cm" height="1cm" viewBox="0 0 212 326" role="img" aria-label="قانوني">
 <mask id="m2">
  <rect width="212" height="326" fill="#000"/>
  <path fill="#fff" d="M37.80 309.45 c-4.20 -0.55 -5.90 -1.50 -8 -4.35 l-1.55 -2.20 -0.25 -14.30 c-0.15 -7.90 -0.45 -14.65 -0.65 -15 -0.65 -1 1 -7.75 2.20 -9.05 1.30 -1.35 6.75 -5.40 12.45 -9.15 16.45 -10.85 28 -27.45 36.20 -51.95 3.50 -10.40 4.60 -15 6.60 -27.70 1.10 -6.95 1.30 -9.60 1.30 -20.30 0.05 -12.30 -0.20 -15.45 -2.15 -25.60 -2.35 -12.25 -8.70 -25.10 -16.20 -32.60 -2.95 -3 -10.35 -8.30 -11.20 -8.15 -0.55 0.10 -0.75 0.60 -0.65 1.40 0.25 1.90 3.95 22.60 5.85 32.75 0.95 4.95 2.50 13.75 3.50 19.50 0.95 5.80 1.90 11 2 11.65 0.25 0.95 0.60 1.10 2.75 1.10 1.65 0 2.50 0.20 2.55 0.65 0.15 1.80 -0.25 3.40 -1.60 6.20 -2.60 5.40 -8.35 9.30 -16.10 11 -3.60 0.75 -4.10 0.75 -7.75 0 -5.10 -1.10 -9.40 -3.35 -12.80 -6.65 -4.20 -4.10 -7.40 -9.35 -6.55 -10.70 0.20 -0.30 1.25 -0.50 2.40 -0.40 1.35 0.10 2.15 -0.10 2.40 -0.60 0.25 -0.40 1.10 -4.90 1.95 -10 0.85 -5.10 2.20 -12.85 3.05 -17.25 2.85 -15.30 6.10 -32.90 8.25 -45.25 0.75 -4 1.55 -7.55 1.80 -7.85 0.35 -0.45 2 -0.65 4.95 -0.65 4.70 0 10.30 1.40 15 3.80 4.55 2.25 13.05 9.85 18.75 16.70 9.30 11.15 16.50 28.70 19.45 47.25 1.25 7.90 1.55 25.50 0.55 34.25 -3.35 29.35 -13.75 56.10 -30.85 79.35 -3.80 5.20 -4.65 6.20 -9.90 12.15 -5.65 6.45 -9.35 10.10 -14.25 14.25 -2.60 2.20 -4.75 4.15 -4.75 4.30 -0.10 0.55 66.15 1 98.70 0.65 l32.90 -0.35 -2.70 -2.30 c-6.65 -5.65 -15.50 -14.75 -22.75 -23.60 -3 -3.60 -11.20 -15.05 -11.20 -15.60 0 -0.15 -1.15 -2.15 -2.55 -4.45 -10.55 -17.10 -18.85 -42.95 -20.80 -64.90 -0.60 -6.45 -0.45 -22.60 0.25 -28.50 2.10 -18.05 4.60 -27.40 10.50 -39.25 3.35 -6.80 6.40 -11.25 11.25 -16.75 5.65 -6.35 11.60 -10.85 18.55 -14 5.55 -2.55 14.35 -3.60 18 -2.20 0.40 0.15 0.90 1.10 1.05 2.10 0.20 1.05 0.75 4.10 1.25 6.85 1.45 7.35 2.30 12.10 3.75 20.50 0.70 4.15 1.75 9.85 2.30 12.70 0.55 2.85 1.75 9.60 2.70 15 2.10 12.10 3.60 20 4.15 22.10 0.35 1.50 0.55 1.65 2.60 1.65 2.05 0.05 2.25 0.15 2.40 1.40 0.20 1.65 -1.75 5.85 -4.25 9.10 -2.95 3.80 -11.75 7.80 -17.30 7.80 -2.95 0 -9.50 -2 -12.50 -3.90 -3.50 -2.15 -7.75 -6.70 -9.65 -10.30 -1.75 -3.30 -1.45 -4.50 1.05 -4.20 1.20 0.15 2 -0.05 2.45 -0.55 0.35 -0.45 1.15 -3.70 1.75 -7.30 2.05 -11.90 4.05 -23 4.55 -25 0.30 -1.10 0.85 -4.25 1.25 -7 0.45 -2.75 1.65 -9.65 2.75 -15.30 1.10 -5.65 2 -10.55 2 -10.85 0 -2.75 -11.40 4.65 -16.15 10.45 -3.10 3.75 -5.45 8.20 -7.75 14.70 -3.65 10.30 -3.50 9.80 -5.85 24 -3.30 19.80 -0.30 46.15 7.70 68.10 2.05 5.55 5.80 13.90 7.55 16.75 0.85 1.30 1.50 2.50 1.50 2.65 0 0.70 4.20 7.20 7.25 11.25 5.05 6.70 12.35 13.40 20.30 18.70 8.60 5.75 10.80 7.55 11.95 9.75 0.85 1.65 0.90 3.15 0.75 18.70 -0.10 9.30 -0.35 17.35 -0.55 18 -0.65 2 -2.90 4.40 -5.45 5.75 l-2.50 1.30 -73.25 0.10 c-43.15 0.10 -74.70 -0.05 -76.70 -0.35z m24.70 -153.90 c0 -0.25 -0.45 -2.70 -0.95 -5.40 -0.55 -2.70 -1.60 -8.40 -2.30 -12.65 -0.70 -4.25 -2.05 -11.80 -3 -16.75 -0.95 -4.95 -2.50 -13.70 -3.50 -19.50 -1 -5.75 -1.95 -11.05 -2.05 -11.70 -0.50 -2.40 -1.25 -0.10 -2.45 7.50 -1.50 9.10 -1.80 10.85 -3.70 20.70 -0.85 4.15 -2.30 12.25 -3.30 18 -1.60 9.35 -2.80 15.75 -3.50 19.15 l-0.25 1.10 12.50 0 c7.35 0 12.50 -0.20 12.50 -0.45z m124.10 -1.55 c-0.10 -0.95 -0.95 -5.90 -1.90 -11 -3.15 -17 -4.60 -25.15 -7.20 -40 -1.45 -8.10 -2.70 -14.85 -2.80 -14.95 -0.05 -0.10 -0.30 0.50 -0.45 1.25 -0.15 0.80 -0.50 2.35 -0.80 3.45 -0.25 1.10 -1.60 8.35 -2.95 16.10 -1.35 7.75 -2.70 15.05 -2.95 16.25 -0.30 1.20 -0.85 4.50 -1.30 7.40 -0.80 5.25 -1.35 8.30 -3.25 17.95 -0.55 2.85 -1 5.25 -1 5.35 0 0.15 5.55 0.15 12.40 0.10 l12.35 -0.15 -0.15 -1.75z"/><path fill="#fff" d="M107.75 274 c-4.50 -1.40 -7.05 -3.15 -9.05 -6.20 -5.25 -7.95 -4.45 -16.75 2.10 -22.75 4.35 -4 10.60 -5.25 16.90 -3.35 4 1.20 8.70 5.75 10 9.70 1.20 3.55 0.95 12 -0.40 14.55 -1.35 2.50 -5.05 6 -7.70 7.20 -2.65 1.15 -9.30 1.65 -11.85 0.85z m7.65 -11.30 c1.40 -0.90 2.60 -3.55 2.60 -5.65 0 -2 -2.10 -4.40 -4.45 -5.10 -1.60 -0.45 -2.20 -0.40 -3.75 0.30 -2.45 1.15 -3.30 2.60 -3.40 5.45 -0.05 2.70 0.90 4.30 3.20 5.50 1.85 0.90 3.90 0.75 5.80 -0.50z"/>
  <path fill="#000" d="M36 156.05 c0 -0.80 0.45 -3.80 1 -6.65 0.60 -2.85 1.85 -9.75 2.80 -15.40 0.95 -5.65 2.40 -13.60 3.25 -17.75 1.90 -9.85 2.25 -11.60 3.65 -20.65 0.70 -4.20 1.40 -7.85 1.55 -8.10 0.15 -0.30 1.10 -0.50 2 -0.50 1.40 0 1.75 0.20 1.95 1.15 0.10 0.60 1.05 5.85 2.05 11.60 1 5.80 2.55 14.55 3.50 19.50 0.95 4.95 2.30 12.50 3 16.75 0.70 4.25 1.75 9.95 2.30 12.65 0.50 2.70 0.95 5.80 0.95 6.90 l0 1.95 -14 0 -14 0 0 -1.45z"/><path fill="#000" d="M160.50 155.80 c0 -0.95 0.45 -4 1 -6.85 1.90 -9.65 2.45 -12.70 3.25 -17.95 0.45 -2.90 1 -6.20 1.30 -7.40 0.25 -1.20 1.60 -8.50 2.95 -16.25 1.35 -7.75 2.70 -15 2.95 -16.10 0.30 -1.10 0.60 -2.60 0.80 -3.35 0.25 -1.20 0.50 -1.40 2 -1.40 0.95 0 1.75 0.20 1.75 0.50 0 1 6.15 35.45 9.80 54.75 0.95 5.25 1.80 10.85 1.85 12.50 l0.10 3 -13.85 0.15 -13.90 0.10 0 -1.70z"/><path fill="#000" d="M108.10 264.65 c-2.65 -1.30 -3.35 -2.80 -3.30 -7 0.05 -4.15 0.75 -5.60 3.35 -6.85 3.45 -1.60 8.15 -0.70 10.25 1.95 1.40 1.80 1.50 6.65 0.20 9.25 -1.60 3.20 -6.75 4.50 -10.50 2.65z"/>
 </mask>
 <rect width="212" height="326" fill="#121f38" mask="url(#m2)"/>
</svg>
